<?xml version="1.0" encoding="utf-8"?>
<!-- Generator: Adobe Illustrator 25.0.0, SVG Export Plug-In . SVG Version: 6.00 Build 0)  -->
<svg version="1.1" xmlns="http://www.w3.org/2000/svg" xmlns:xlink="http://www.w3.org/1999/xlink" x="0px" y="0px"
	 viewBox="0 0 1920 1080" style="enable-background:new 0 0 1920 1080;" xml:space="preserve">
<style type="text/css">
	.st0{fill:none;stroke:#FFFFFF;stroke-miterlimit:10;}
</style>
<g id="Capa_3">
	<rect x="0.5" y="-0.5" width="1919" height="1080"/>
</g>
<g id="Capa_5">
	<path class="st0" d="M530.9,720.1c1.4,2.4,2.2,4.6,2.9,17.4c2.1,36.2-2.3,47.2-0.3,61.9c0.3,2,0.9,5.7-0.3,10.3
		c-1.7,6.3-4.9,7.3-5.8,11.9c-1.3,6.7,5,7.5,5.8,15.9c0.9,9.7-7,15-2.9,20.7c1.2,1.7,3.8,3.9,2.9,5.7c-0.6,1.3-2.4,1.1-2.9,2.4
		c-0.8,2.1,3.1,3.6,2.9,6.5c-0.2,2-2,1.9-2.9,4.9c-0.2,0.7-0.9,2.7,0,4.9c0.8,2.1,2.2,2,2.9,4.1c0.3,1,0.1,1.2,0,4.5
		c-0.1,2.6-0.1,3.9,0,4.5c0.5,2.3,1.7,2.4,4.1,6.1c1.4,2.3,2.1,3.4,2.3,5c0.3,2.4-0.8,3.1,0,4.7c0.9,1.8,2.6,1.5,3.5,3.2
		c1.1,2.3-1.1,4.5,0,5.3c1,0.8,3.4-0.8,4.3,0c0.8,0.7-0.9,2.3,0,3.7c0.7,1.2,2.4,0.6,4.9,2c1.5,0.8,1.5,1.4,3.5,3
		c1.7,1.4,3.1,2.1,4.6,3c8.1,4.5,7.8,5.6,11.6,7c6,2.1,11.9,1.1,13.9,0.8c3-0.5,5.9-1.7,11.7-4c2.9-1.2,5.3-2.2,7-3
		c-7.4,0.8-12.5-0.7-15.1-1.7c-15.1-5.8-21-23.5-16.4-28.3c0.6-0.7,1.6-1.2,2.4-2.6c2-3.3-0.4-5.3,1.2-8c1.7-2.8,5.2-1.9,7-5
		c1-1.6,1.4-4.2,0-6c-2.7-3.4-9.7-0.6-12.8-4c-2.3-2.5-1.5-7.3,1.2-9c2.1-1.3,3.9,0.2,5.8-1c2.8-1.8-0.2-6,2.3-10
		c2.7-4.3,9.6-4.7,9.3-6c-0.3-1.3-7,0.2-10.5-3c-2.3-2.1-2.7-5.9-1.2-7c2.4-1.7,8,3.7,11.6,2c3.9-1.8-0.2-9.2,4.3-12.7
		c4-3.2,9.6,1.1,16.7-2.2c4.4-2.1,7.8-6.3,8.1-11c0.3-4.6-2.6-8-3.5-9c-3.2-3.4-7.2-4.4-7-5c0.4-0.9,8.5,2.5,18.6,1
		c2-0.3,4.4-0.7,7-2c3.6-1.9,5.3-4.4,8.1-9c9.5-15.2,8.7-14.8,10.7-16.8c3.7-3.8,6.4-4.9,6.7-8.1c0.3-2.6-1.1-3.8-1.2-8
		c0-0.2,0-3,1.2-5.6c2.3-5.2,8.3-7.6,10.5-8.3c4.1-0.4,14.4-1.9,23.2-9c8.1-6.5,10.7-14.3,11.7-17.4c4.3-13.8-3.7-17.9,1.1-27.4
		c4.8-9.5,14-7.6,19.7-18.9c3.1-6.1,4.6-14.9,0-18.5c-2.4-1.9-4.3-0.6-9.3-2.4c-7.3-2.7-6.2-6.6-12.8-10c-4.6-2.3-13-4.4-20.9-3
		c-2.6,0.5-6.1,1.5-7.9,0c-1.3-1.1-0.5-2.5-1.3-4c-2-3.6-10-1.4-17.4-4c-6.8-2.4-10.5-7.8-13.9-12.9c-5-7.4-2.7-9.1-7-12.9
		c-5-4.5-14.1-7.5-22.1-6c-4.8,0.9-6.7,3-9.3,2c-3.9-1.6-1.3-7.3-5.8-11c-4.3-3.5-8.9-0.4-13.9-4c-4.4-3.2-2.2-6.6-7-10
		c-4.2-2.9-9.6-3-11.6-3c-5.2,0-6,1.6-10.5,2c-8.4,0.8-9.6-4.5-20.9-6c-6.6-0.9-12.9,0-16.5,0c-5.8,4-11,6.5-14.9,8
		c-5.4,2.1-9.9,3.1-12.8,7c-1.3,1.8-1.7,3.2-2.3,6c-1.8,7.7,0.3,14.6,1.7,19.2c0.2,0.7,0.4,1.3,0.6,1.7c-3.3,2.1-8.3,5.6-12.8,11
		c-2,2.4-13.1,15.8-9.3,29.9c1.2,4.5,3.1,5.8,9.3,13.9c16.4,21.5,11.8,23.6,20.9,31.9C511.6,711.3,523.8,708.1,530.9,720.1z"/>
	<path class="st0" d="M792.5,749.5"/>
	<path class="st0" d="M764.5,620.5"/>
</g>
<g id="Capa_6">
	<path class="st0" d="M490.3,586.5c-2.5-4.4-5.1-5.7-7-6c-3.9-0.6-5.6,2.6-11.3,3c-5.5,0.3-9.7-2.2-10.9-3c-3.8-2.5-5.3-5.7-5.8-7
		c-2.2-5.2-0.6-9.7,0-11.3c3-1.6,4.5-4.8,3.5-7.7c-1-3-4.4-5.1-8.2-5c-2,0-5-0.1-8.6,0c-8.5,0.2-10,0.8-10.9,0
		c-3.6-3.4,15.8-17.7,11.3-26c-2.7-4.9-13.4-7-18.7-4c-4.5,2.6-2.2,7.2-7,12c-4.6,4.5-13.4,6.9-19.8,5c-12.3-3.7-12.7-22.3-12.8-27
		c-0.3-12.5,5.3-22.4,9.3-28c2.4-1.9,6.4-4.4,11.7-5c8.8-0.9,12.2,4.6,21,4c7.9-0.5,7.9-5.2,17.5-7c2.6-0.5,14.9-2.5,21,3
		c5.2,4.7,1.2,10.5,8.2,21c3.2,4.8,5,5.1,5.8,5c2.5-0.2,4.2-4.2,4.7-7c0.8-4.3-1-7-2.3-11c-1.7-5.1-2.2-11.3-1.2-15
		c3.5-12.6,28.7-10.7,33.8-24c2.7-7.2-3.8-9.7,0-16.6c4.1-7.4,16.6-13.3,25.7-15.4c2.5-0.6,6.2-1.3,9.3-4c3.6-3.1,5-7.5,5.2-8.1
		c0.5-1.5,0.5-2.3,0.6-2.9c0.7-2.8,4.9-6.2,21-9c0.1,7,2.3,8.5,3.5,9c3.2,1.3,6.5-2.4,19.3-9c7-3.6,10.1-4.6,9.9-6
		c-0.6-3.3-18.8-1.4-21-7c-1.6-4,6.5-8.5,4.7-11c-0.8-1.1-3.2-1.1-19.3,0c-5.2,0.4-6.6,0.5-6.8,0c-0.6-1.3,8.3-7.3,19.1-9
		c12.7-2.1,18.6,3.2,31.1,0c4.4-1.1,7.7-2.8,9.7-4c2.3-1.9,3.1-2.2,3.5-2c1.1,0.6-1.2,6.2-4.7,11c-4.2,5.9-7.4,6.6-7,9
		c0.6,4,9.8,5.9,15.2,7c6.6,1.4,11.2,2.3,14,0c2.9-2.5,2.9-7.9,0-10.8c-3.9-4-11.3-1.9-12.8-5.2c-0.6-1.2,0.4-2.8,2.3-6
		c6.7-11.1,6.9-11.2,7-12c0.7-4.8-4.3-7.1-11.7-16c-0.5-0.5-6.6-8-10.5-16c-7.1-14.5-4.9-26.7-8.2-27c-2.7-0.3-3.5,7.9-11.7,11
		c-0.8,0.3-6.6,2.4-10.5,0c-3.2-2-3.4-6-3.5-7c-0.3-6.5,5.6-10.4,3.5-13c-0.9-1.2-2.2-0.4-4.7-2c-2.6-1.6-3-3.5-4.7-6
		c-1-1.4-3.8-5.6-8.2-7c-5.8-1.9-9.8,2.3-14.9,0c-3.3-1.5-3.6-4.2-4.9-4c-2.7,0.5,2.1,12.3-4.7,22c-3.8,5.4-8.3,6.2-8.2,10
		c0.2,4.8,7.4,5.7,8.2,11c0.8,5.6-6.3,10.6-8.2,12c-7.4,5.3-12.1,3-15.2,7c-4.4,5.7,3.8,12.5-1.2,19c-1.6,2.1-5.1,4.8-8.7,4.1
		c-2.8-0.5-5-2.8-6-5.8c-0.2-0.8-0.3-1.6-0.5-2.3c6.4-12.6,5.8-17.3,3.5-19c-2.7-2-6.6,0.9-12.8-1c-5.8-1.8-5.9-5.5-12.8-11
		c-8-6.3-11-3.9-16.3-9c-5.7-5.5-8-13.9-5.8-21c1-3.2,3.8-6.2,9.3-12c7.2-7.5,11.8-12.4,19.8-17c7.7-4.5,15.5-8.9,21.6-6.6
		c6.9,2.6,4.8,11.1,12.2,13.6c4.9,1.6,11.8,0,15.2-4c3.5-4.2,1.9-9.3,1.8-9.6c-2.6-7.8-14.2-9.7-13.5-12.4c0.8-3.1,16.7,0.9,23.3-6
		c3.8-3.9,0.1-6.8,4.7-16c2.8-5.6,5.8-7.9,4.7-11c-1-2.9-4.9-4.5-8.2-5.4c0,0,0,0,0,0c0,0,0,0-0.1,0c-0.1,0-0.9-0.2-2.2-0.5
		c-3.2,3.6-7.9,8.5-14,14c-7.5,6.7-9.6,7.5-10.5,7c-2.7-1.3,5.3-11.6,0-19c-2.6-3.7-6.2-3.6-7-7c-0.9-3.9,3.4-5.4,4.7-11
		c1.2-5.3-0.8-12-4.7-13c-2.9-0.8-6.2,2.2-12.8,8c-4.9,4.3-7.4,6.6-7,9c0.6,3.6,6,3.8,7,8c0.8,3.4-2.1,6.5-3.5,8
		c-0.7,0.7-5.3,5.7-10.5,5c-3.3-0.5-3.3-2.8-7-4c-4.2-1.4-6.7,0.9-14,2c-3.6,0.5-10.3,1.5-16.3-1c-6-2.5-10.9-8.4-9.3-11
		c1.6-2.7,11.1-2.9,17.7-0.7c1.4,0.4,2.1,0.8,3.3,0.7c4.8-0.3,9.9-6.5,9.3-12c-0.5-4.9-5-5.2-5.8-10c-0.2-1.4-0.4-4.4,8.2-15
		c7.8-9.7,11.6-11.9,10.5-14c-1.5-2.9-11.3-3.7-16.1,0c-4.5,3.4-2.9,9.3-6,10c-1.2,0.3-2.5-0.4-8.2-5c-5.6-4.6-8.4-6.8-9.3-8
		c-4.3-5.5-1.6-8-4.7-15c-0.6-1.3-6.3-13.6-17.5-15c-4-0.5-9.2,0.3-12.8,3c-2.1,1.5-3,3.2-3.5,4c-6.6,10.9-19,12-21,21
		c-1,4.5,0.8,10.3,4.7,12c4.6,2,9.8-2.5,14,0c2.2,1.3,2.8,3.9,3.5,7c1.3,5.8-0.9,8.3,1.2,10c1.8,1.5,4.1-0.1,9.3,1
		c4.7,1,8.4,3.4,8.2,4c-0.2,0.5-3.2-0.2-10.5-1c-11.5-1.3-12.5-0.4-12.8,0c-1.5,2,3.5,6.8,4.7,8c5.6,5.4,10.8,6.2,10.5,8
		c-0.3,1.9-6.7,3.7-11.7,2c-3.5-1.2-4.8-3.5-8.2-8c-7.6-10.2-11.4-15.3-16.3-16c-5.9-0.8-9.1,4.5-12.8,3c-4.9-2.1-0.7-12.1-5.8-15
		c-4.1-2.3-10.2,2.2-19.8,5c-6.9,2-16.8,3.4-30.3,1c-2.2-2.7-5.3-6.2-9.3-10c-1.1-1-5.9-5.6-10.5-9c-13.6-9.9-21.2-6-30.3-14
		c-8.2-7.2-4.6-12.6-11.8-16c-9-4.4-22,0.7-30.2,4c-15.4,6.1-24.6,15.1-31.5,12c-2.3-1-3.1-2.9-5.8-3c-3.8-0.2-8.5,3.2-9.3,7
		c-1,4.9,5.1,6.4,5.8,14c0.4,3.8-1.1,4.6,0,8c1.5,4.9,5.4,6,4.7,8c-1.2,3.3-13.6,4.6-16.3,1c-1.8-2.4,1.6-5.8,0-7.3
		c-1.7-1.6-7.6,0.7-12.8,3.3c-0.2,0-13.7-0.5-15.2,3c-0.7,1.7,2.3,2.7,3.5,7c1.2,4.3-1.2,5.7,0,8c2.8,5.6,19.1,2.3,21,7
		c0.9,2.3-2.1,5.5-3.5,7c-2.4,2.5-5.1,3.7-5.8,4c-5,2-7.9,0.4-12.8,1c-8.8,1.1-14.5,8.1-15.2,9c-5.3,6.8-1.8,11.8-7,15.3
		c-5.1,3.4-12.6,1.4-12.8,2.7c-0.3,1.7,13.5,2.5,16.3,9c2.1,4.8-3.4,8.5-1.2,12c3.4,5.3,18.4,1.3,19.8,4c2.9,5.7-59.9,31.9-58.3,35
		c1.2,2.4,43.6-4.2,78.2-30c12-9,26.1-22.5,26.8-22c0.3,0.2-2.2,3-8.2,11c-4.4,5.8-5.3,7.4-4.7,8c1,1,4.9-1.7,14-4
		c6.6-1.7,8.2-1.2,10.5-3c4.2-3.4,2.8-8.7,4.7-9c2.3-0.3,4.1,6.8,10.5,13c6.5,6.4,11.6,5.8,17.5,10c8.5,6,9.8,15.4,11.7,31
		c1.2,10.3,1.9,25.1-1.2,43c6.8-23.6,10-28.2,11.7-28c2.7,0.3,3.8,13.1,3.5,22c-0.4,11.4-3.1,15.5,0,23c2.4,5.8,4.9,5.5,7,11
		c2,5.1,1.7,10.2-2.3,23c-6.2,19.6-8.8,18.3-10.5,29c-0.1,0.4-0.1,0.9-0.2,1.6c-1.5,11.5,1.3,23,1.3,23c1.8,7.5,4.2,17.4,12.9,26.4
		c3.9,4,5.5,4.1,8.2,8c4.6,6.7,2.8,10.6,5.8,19c1.6,4.4,2.1,3.5,10.5,17c8.5,13.6,10.3,18.3,11.7,18c2.1-0.5,1.1-12.1-2.3-23
		c-4.4-14.1-12-24.2-10.5-25c0.8-0.4,3.4,1.7,4.7,3c1.4,1.4,2.1,2.6,2.3,3c4.3,7.5,6.9,23.7,17.5,33c4.9,4.3,7.4,3.6,10.5,8
		c4.1,5.9,1.7,10.2,3.5,16c3,9.6,14.8,14.8,22.2,18c13.9,6.1,18.9,2.4,40.8,9c9.7,2.9,16.6,6,18.7,7c15.9,7.3,26.9,16.1,29.2,18
		c11.3,9.2,12.7,13.6,21,16c6.9,2,13.5,1,17.9,0L490.3,586.5z"/>
</g>
<g id="Capa_7">
	<path class="st0" d="M710.8,294.5c3.1,0.8,8.1-6.2,9.3-8c17.3-24.4,16.7-33.9,26.8-38c8.3-3.3,13.8,1,19.8-4c5-4.2,3.6-9.2,9.3-13
		c4.2-2.8,8.5-2.5,14-3c19.2-1.7,35.9-11.7,35-15c-0.7-2.6-12.2-0.7-14-5c-1.3-3.1,2.8-8.2,5.8-8c4.1,0.3,4.3,9.7,8.2,10
		c3.6,0.2,9.4-7.7,7-13c-2.2-4.8-9.5-3.6-12.8-9c-3.1-5-0.7-12.4,2.3-13c3.5-0.7,6.8,7.7,10.5,7c4.5-0.9,1.6-14,10.5-19
		c3.5-1.9,6.6-1.4,7-3c0.9-3.4-13.6-6.3-14-13c-0.2-3.6,3.5-7.7,7-8c4.3-0.4,7.2,4.9,9.3,4c1.7-0.7,1.9-4.8,0-8
		c-3-5.3-9.5-4.6-10.5-8c-1.2-4.1,7.6-5.8,10.5-14c2.3-6.7-1.2-12,2.3-14c1.7-0.9,2.9,0.4,5.8,0c4.9-0.6,6.5-4.8,11.7-10
		c7.6-7.6,12.9-7.5,12.8-11c0-4.1-7-8.4-12.8-8c-2.7,0.2-4.2,1.4-8.2,4c-4.6,3-15.8,10.3-17.5,9c-2.2-1.6,11.6-17.4,9.3-19
		c-2-1.4-15.2,9-16.3,8c-0.5-0.5,3.2-3.2,2.3-5c-1.2-2.4-10.1-1.3-12.8-1c-8.6,1.1-13.7,3.5-14,3c-0.3-0.5,5.4-5.5,14-7
		c6.7-1.2,10.9,0.6,22.2-1c4-0.6,5.4-1,5.8-2c0.9-1.8-2-4.5-11.7-12c-9.7-7.6-14.6-11.4-17.5-12c-7.1-1.6-18.1-0.8-22.2,4
		c-0.8,1-1.6,2.4-3.5,3c-2.6,0.8-4.8-0.9-8.2-2c-0.8-0.3-9-2.9-15.2,0c-5.9,2.8-6.9,9.3-7,10c-0.9,6.3,3.5,12,3.5,12
		c0,0-5-14.1-10.5-14c-1.6,0-2.8,1.3-3.5,2c-3.8,3.9-1.4,9.8-2.3,10c-1.2,0.3-2.8-11.3-9.3-13c-4.6-1.2-6.8,3.6-16.3,5
		c-7.8,1.1-11.9-1.3-14,1c-2.8,3,2.5,9.4,0,11c-1.2,0.8-3.2-0.4-5.8-1c-9.7-2.3-23.2,4.5-23.3,10c-0.1,2.8,3.3,3.5,3.5,7
		c0.2,3.6-2.4,7.3-5.8,9c-2.8,1.3-5.7,1.1-7,1c-11.2-0.7-27.1,3.1-28,7c-1.1,4.7,18.7,10.8,17.5,14c-1,2.7-15.4-0.3-17.5,4
		c-0.8,1.7,1.1,2.8,2.3,9c0.9,4.4,0.2,5,1.2,6c3.3,3.3,12.2-3.1,21-1c11.6,2.7,15.7,18.4,16.3,21c0.7,2.7,3.6,13.9-2.3,25
		c-2.7,5.1-6.4,8.6-4.7,11c1.8,2.4,6.9,0.4,12.8,4c2.2,1.3,5.5,4.1,4.7,6c-0.5,1.3-2.8,2.1-4.7,2c-3.9-0.2-4.8-4-8.2-4
		c-2.5,0-4.9,2.1-5.8,4c-1.1,2.2,0.3,3.3,1.2,9c0.6,4,0.3,5.8,1.2,6c1.3,0.3,2.4-3.3,7-6c2.6-1.6,6.3-2.8,7-2c1.1,1.2-4.6,6.8-5.8,8
		c-6.7,6.5-10.6,7.3-12.8,12c-1.1,2.4-1.2,4.4-1.2,7c0.1,14.7,0.1,22.1,2.3,31c2.6,10.3,5.2,21,11.7,22c3.6,0.6,6.2-2.3,9.3-1
		C709.5,286.4,707.9,293.7,710.8,294.5z"/>
</g>
<g id="Capa_8">
	<path class="st0" d="M1168.2,726.5c-2.6,6.4-5,6.7-5.8,12c-0.7,4.8,0.1,12.3,4.7,14c5.3,2,13.7-4.9,17.5-9
		c6.7-7.1,4.6-10.9,12.8-26c3.7-6.8,4.7-7.1,5.8-11c2.9-10.2-0.4-20.8-3.5-21c-3.1-0.2-2.8,10.2-12.8,16c-6.5,3.7-10,1.3-14,5
		C1167.9,711.1,1172.5,715.8,1168.2,726.5z"/>
	<path class="st0" d="M1028.2,801.5c16.2,0.6,24.3,0.9,36.2-3c17.6-5.8,42.7-20.4,40.8-34c-0.6-4.1-3.5-7.6-1.2-11
		c3-4.3,10.1-2,14-6c5.1-5.3-3.9-12.5,0-21c2.8-6,8.6-4.8,22.2-15c7.3-5.5,11-8.2,12.8-12c5-10.2-4.8-16.1-5.8-33
		c-0.2-3-0.8-18.1,9.3-31c6.9-8.8,12.8-9,24.5-17c23.4-16.2,37.3-41.6,31.5-47c-2.3-2.2-9-0.8-22.2,2c-14.8,3.1-22.4,6.8-25.7,4
		c-2.4-2,0.7-4.6-1.2-9c-3.4-7.9-16.3-6.3-19.8-14c-2.2-4.7,1.8-7.2-1.2-11c-3.6-4.6-11-3-12.8-7c-1.3-2.8,2.1-4.7,2.3-9
		c0.3-4.9-3.6-8.3-8.2-13c-7.4-7.5-20.2-20.7-17.5-24c1.5-1.9,8.5-1.1,12.8,2c4.5,3.2,2.5,6.4,7,12c5.2,6.5,10.4,5.4,12.8,11
		c2.2,5.1-1.5,7.2,1.2,11c3.2,4.6,9.8,3.1,12.8,8c1.9,3-0.4,3.9,1.2,8c2.5,6.4,8.7,6.1,10.5,12c1.1,3.6-0.8,5.2,1.2,8
		c2.2,3,6.5,3.9,7,4c10.2,1.9,15-10.7,30.3-12c5.1-0.4,7.3,0.7,11.7-1c5.3-2.1,4.9-5,10.5-9c7.6-5.5,12-2.8,17.5-8
		c4.6-4.3,2.7-7.3,7-10c6.6-4.1,15.4,0,16.3-2c1-2.1-7.1-8.9-17.5-11c-5.5-1.1-7.7-0.1-10.5-2c-5.7-3.9-2.7-12-5.8-13
		c-4-1.2-9,11.8-17.5,12c-1.9,0-3.9-0.6-16.3-13c-11.1-11.1-12.7-13.7-11.7-16c1.1-2.5,4.9-4.4,8.2-4c6.3,0.8,4.9,9.9,14,15
		c3.6,2,10,4,16.3,3c5.3-0.8,7.7-3.2,10.5-2c3.3,1.5,1.8,5.7,5.8,8c2,1.2,4.2,1.1,8.2,1c6.2-0.2,7.8-1.8,11.7-1c3.1,0.7,3,2,5.8,3
		c7,2.5,12.2-4.1,19.8-3c3.9,0.6,6.9,3.7,12.8,10c9.5,10,11.5,16.3,15.2,16c4.5-0.4,5.7-10.2,8.2-10c2.4,0.2,1.9,9.4,4.7,20
		c1.9,7.4,3.3,7.5,12.8,27c9.5,19.3,10.9,24.7,15.2,25c5.1,0.3,10.6-7,12.8-13c4.8-13.1-4.9-23.2,1.2-28c3.4-2.7,7.3-0.2,14-4
		c3.5-2,4.9-4,8.2-8c8-9.7,11.9-14.5,15.2-16c8.9-4.1,24.2-0.6,31.5,7c7.1,7.4,3.1,14.7,10.5,19c7.1,4.1,14-0.9,18.7,3
		c5.3,4.4-1.8,12.2,0,25c1.1,7.8,5.8,13.9,15.2,26c4.2,5.4,19.2,24.8,23.3,23c3-1.3,1.7-14.6-7-23c-4.9-4.8-8.9-4.7-14-11
		c-1.8-2.2-5.3-6.7-5.8-13c-0.4-5.5,1.3-14.1,5.8-15c5.6-1.2,14.6,9.6,18.7,16c3.4,5.3,4,8.5,7,9c2.4,0.4,4.9-1.2,12.8-9
		c8.4-8.3,12.6-12.4,12.8-14c1.7-11.6-26.4-17.4-25.7-30c0.5-8.1,12.6-15.5,16.3-14c2.4,1,2.3,6,2.3,7c0,4.7-2.4,6.8-1.2,8
		c1.5,1.5,7.3,0.8,9.3-2c3-4-3.7-9.4-1.2-13c2.1-3,8.2-1.2,15.2-2c17.6-2.1,28.5-19.4,33.8-28c4.8-7.7,8.2-13.1,7-20
		c-1.3-7.9-7.9-14.3-11.7-18c-7.8-7.7-12.7-8.2-12.8-12c-0.2-7.4,17.8-11.7,16.3-16c-0.7-2.2-6.4-3.8-10.5-3c-3.2,0.6-4.1,2.2-7,2
		c-1.7-0.1-2.5-0.8-5.8-3c-7.2-4.8-8.3-5.1-8.2-6c0.2-2,5.4-1.4,11.7-5c5.8-3.3,7.9-7.6,9.3-7c1.7,0.6-1.4,6,1.2,8
		c3.6,2.8,13.4-5,18.7-2c2.6,1.5,0.9,4,3.5,9c3.8,7.3,9.9,6.7,12.8,13c3.1,6.5-1.4,11.7,1.2,13c2.7,1.4,10.7-3,12.8-9
		c2.4-6.7-2.6-14.7-8.2-19c-4.7-3.7-9-4.1-9.3-7c-0.3-2.7,3.2-3.5,7-8c6.9-8.2,4.5-16.9,9.3-18c1.9-0.4,2.8,0.9,4.7,1
		c8.7,0.6,25.5-25.3,23.3-53c-1.9-24.5-18.1-45.1-23.3-44c-3.4,0.7-3.2,11-5.8,11c-2.1,0-1.8-6.4-7-9c-5.2-2.6-11.1,0.9-12.8-1
		c-1.9-2.1,4.1-7.1,8.2-14c9.4-15.9,1-28.9,9.3-33c4.9-2.4,7.5,2.1,16.3,0c10.3-2.5,14.6-10.6,19.8-9c2.4,0.7,1.9,2.6,4.7,4
		c6.8,3.5,20-2.1,19.8-6c-0.1-2-3.6-2.1-5.8-5c-5.6-7.4,4.4-24.3,11.7-24c5.6,0.2,6.9,10.3,11.7,10c4.4-0.3,9.1-9,7-16
		c-1.6-5.2-6.7-8.1-5.8-9c0.7-0.8,5.3,0.5,8.2,3c5.6,4.9,3.7,13.6,1.2,24c-7.8,32.5-8.1,29.8-8.2,33c-0.2,12.3,6.1,22.5,18.7,43
		c9.4,15.3,12.1,15.2,12.8,15c2.3-0.5,1.9-5.7,2.3-19c0.8-28.3,3.3-29.5,0-36c-3.9-7.6-8.9-9.2-12.8-20c-3.1-8.7-1.3-11.7,0-13
		c2.5-2.5,5.7-1.2,9.3-4c4.7-3.7,2.7-8.9,5.8-10c4.5-1.7,11.3,8.4,15.2,7c4-1.4-1.5-12.4,4.7-26c1.5-3.3,4.4-9.6,10.5-11
		c4.6-1.1,8.4,1.2,9.3,0c0.9-1.2-2.5-3.9-11.7-13c-5.3-5.3-5.9-6.1-8.2-7c-7-2.7-14.9,0.6-15.2,0c-0.3-0.8,12.1-2.4,14-8
		c1.1-3.3-2.3-5.2-5.8-14c-2.4-5.9-3.1-10.8-2.3-11c1.3-0.4,5,12.2,12.8,13c2.6,0.3,3.2-1,7-1c4.2,0,6.8,1.6,11.7,4
		c9.4,4.7,14.7,7.2,16.3,6c1.5-1.1-1.5-4.1-2.3-11c-0.8-6.7,1.5-7.9,0-12c-2.3-6.2-9.8-9.2-11.7-10c-6.8-2.8-12.7-2-17.5-2
		c-18.4,0.2-20.7-9.5-49-16c-9.3-2.2-17.9-3.2-26.8-3c-12.7,0.2-25.4,2.8-25.7,6c-0.2,2.4,6.6,3.2,10.5,10c0.6,1.1,2.7,4.6,1.2,6
		c-1.6,1.5-7-0.1-10.5-2c-7.7-4.1-10.7-11.4-11.7-11c-0.8,0.3,2,4.3,0,7c-1.3,1.8-4,1.9-9.3,3c-7.7,1.5-8.4,2.6-11.7,3
		c-12.1,1.6-16.9-11.1-29.2-11c-9.9,0.1-10.6,8.4-21,9c-11.9,0.6-13.7-10.1-29.2-12c-8.5-1-8.1,2.2-26.8,3c-9.7,0.4-15.3-0.2-16.3,2
		c-1.7,3.6,12.1,9.2,10.5,14c-1.4,4.1-13.5,5.9-21,6c-6.1,0.1-10.2-1-11.7,1c-1,1.4,0.3,2.9,1.2,9c0.4,3.1,0.6,4.6,0,5
		c-2.2,1.3-11.1-5.6-17.5-12c-7.8-7.8-8.6-11.6-15.2-14c-2.4-0.9-5.1-1.3-10.5-2c-7.5-1-11.3-1.5-12.8,0c-3,2.9,3.8,9.4,1.2,12
		c-2.6,2.6-10.2-2.7-22.2-3c-13.1-0.3-15.3,5.9-22.2,4c-13-3.5-8-26.6-24.5-33c-1.3-0.5-9-3.5-16.3-1c-6.1,2.1-8.7,6.9-11.7,6
		c-2.4-0.7-1.3-3.9-4.7-8c-0.9-1.2-4.7-5.9-10.5-6c-5.4-0.1-11,3.9-11.7,8c-0.8,5,6.2,6.7,5.8,12c-0.4,5.5-8.6,11-14,10
		c-3.3-0.6-4.3-3.3-7-3c-3.2,0.3-5.1,4.4-5.8,6c-7.2,14.9-21.2,24.8-18.7,27c1.1,1,3.6-1.2,7,0c3.8,1.4,6.2,6.1,4.7,8
		c-1.7,2.1-7-1.1-14,1c-4.1,1.3-9.4,4.6-9.3,8c0.1,4.6,9.8,4.8,18.7,13c8.2,7.5,9.4,16,9.3,16c-0.1,0.1-4.3-14.3-14-16
		c-3.2-0.6-4.4,0.7-9.3,0c-6.9-1-8-4.1-11.7-4c-7.9,0.2-9.9,14.6-16.3,15c-8.1,0.5-13.5-21.7-18.7-21c-4.1,0.5-7.6,14.9-3.5,29
		c4.4,15.3,16.1,24.3,14,26c-1.5,1.2-7.5-3.7-19.8-9c-12.9-5.5-26.8-8.9-28-7c-1.5,2.3,15.8,10,14,15c-1.5,4.4-15.9,2.6-28,4
		c-41.3,4.7-68.8,46.9-70,46c-0.8-0.6,20.2-17.1,15.2-28c-1.5-3.3-8-6.2-21-12c-11.2-5-20.1-8.2-22.2-9c-27-9.9-28.2-11.3-32.7-11
		c-2.4,0.2-5.1,0.7-25.7,13c-22.9,13.7-25,16.3-24.5,17c0.8,1.1,8.7-2.9,10.5-1c1.5,1.6-2.5,6.4-10.5,16
		c-11.6,13.8-17.4,20.7-18.7,22c-11.7,11.7-15.3,11.8-17.5,18c-3.2,9,0.1,20.8,7,23c8.4,2.7,18.4-9.8,23.3-7c3.1,1.8,2.9,9-1.2,13
		c-6.1,5.9-17.8,2-19.8,6c-2.4,4.7,13.1,12.8,10.5,18c-1.1,2.2-4.3,1.7-10.5,4c-11.5,4.3-12,10.4-17.5,11
		c-10.5,1.1-28.4-19.5-25.7-39c1.7-12.7,11.4-19.4,9.3-21c-3-2.4-24.8,10.5-39.7,30c-9.4,12.4-16.2,27.9-11.7,31
		c4.6,3.1,18.1-7.8,23.3-4c4.1,3-1.6,11.5,2.3,14c5.3,3.4,20-9.6,25.7-6c2.3,1.5,2.7,5.4,1.2,8c-4.2,7.2-22.4,4.2-23.3,8
		c-0.6,2.6,7.6,3.9,12.8,11c3.9,5.3,6.4,14.1,2.3,18c-6.5,6.2-23.3-6.3-35,0c-11.5,6.2-13,27.9-3.5,35c5.7,4.3,14.7,2.6,16.3,7
		c1.1,2.9-1.8,6.1-3.5,8c-6.3,7-12.5,4.9-17.5,10c-7,7,0.2,15.8-7,22c-3.8,3.3-7.5,2.3-12.8,4c-16.6,5.3-21.6,27.9-23.3,36
		c-1.3,6.2-5.5,27.1,8.2,49c3.3,5.2,18.5,29.6,43.2,32c8.4,0.8,16.9-1,31.5-4c14.1-2.9,23.1-6.4,32.7-3c6.3,2.2,10.5,5,10.5,5
		c5.9,3.8,6.8,6.5,10.5,7c5.8,0.7,9.7-5,11.7-4c3.1,1.6-8.3,14.3-4.7,27c2.4,8.3,8.5,7.3,17.5,20c4.8,6.7,12.2,17.2,9.3,28
		c-1.9,7.2-6.3,6.9-9.3,16c-0.8,2.5-3.4,11.2,0,21c3.3,9.5,8.1,8.4,11.7,18c3.4,9.1-0.5,11.5,3.5,22c1.5,3.9,3.3,6.9,7,13
		c5.7,9.5,8.3,11.3,8.2,16c-0.1,4.9-3.1,7.3-1.2,10C1020.7,801.1,1025.4,801.4,1028.2,801.5z"/>
</g>
<g id="Capa_9">
	<path class="st0" d="M1718.8,677.5c-1.9,0.3,1.3,12.8-4.7,29c-2.4,6.4-4.6,12-9.3,13c-7.3,1.5-18.8-8.2-19.8-18
		c-0.7-7.2,4.6-9.9,2.3-14c-3.7-6.7-23-8.8-31.5-2c-6.7,5.4-3.7,14.3-9.3,16c-4.8,1.5-8.3-4.5-15.2-5c-10-0.8-15.6,10.8-26.8,21
		c-23.8,21.6-47.8,14.5-54.8,31c-3.3,7.8-1.2,16.8,1.2,27c2.9,12.3,7.9,19.1,3.5,26c-3.4,5.5-9.6,6.1-9.3,10c0.2,4.2,7.8,8.8,14,8
		c7.1-0.9,7.3-8.2,15.2-10c6.7-1.5,9,3.2,17.5,3c8.5-0.2,10.2-5,21-9c3.8-1.4,19.8-7.4,30.3-2c10.1,5.1,6.2,16.1,17.5,21
		c6.9,3,11.8,0.4,15.2,4c4.5,4.7-2.4,10.8,1.2,17c4.7,8.2,22.6,8,29.2,8c8.2-0.1,20.3-0.1,26.8-7c4.7-5,2-8.7,5.8-17
		c4.3-9.2,10.7-11.2,17.5-18c12.5-12.5,17.2-32.1,12.8-47c-1.8-6.1-7.4-13.7-18.7-29c-7.1-9.6-7.7-9.3-11.7-15
		C1723.6,697.1,1721.1,677.1,1718.8,677.5z"/>
	<path class="st0" d="M1694.3,859.5c-1.6,0.7,3.2,7.8,3.5,18c0.2,8.3-2.7,12.3-1.2,13c4,1.9,26.5-24.4,23.3-27
		c-1.6-1.3-7.7,4.7-15.2,3C1698.3,865,1695.7,858.9,1694.3,859.5z"/>
	<path class="st0" d="M1850.7,873.5c-4-0.9-9,8.9-15.2,16c-15.3,17.7-36.6,17.5-36.2,26c0.2,4.5,6.4,9,11.7,9c5.1,0,7.8-4.2,19.8-18
		c16.1-18.6,19.7-20.9,24.5-22c5.5-1.2,9.3,0,14-3c4.2-2.7,3.1-4.8,8.2-10c5.8-5.9,10.8-6.8,10.5-10c-0.1-0.9-0.5-1.3-4.7-5
		c-7-6.2-8.5-7.4-10.1-9.8c-1.1-1.6-0.8-1.6-2.8-6.2c-2.7-6.1-6.4-13.2-7-13c-0.5,0.2,1.6,5.4,3.5,15c1.2,6,1.8,9,1.2,11
		c-2.3,7.1-10.7,8.2-10.5,13c0.2,4.2,6.8,5.9,5.8,9c-0.7,2-4.3,3.6-7,3C1853.1,877.8,1853,874,1850.7,873.5z"/>
	<path class="st0" d="M604.7,1045.5c0.5,5.2,0.5,12.1-1.2,20c-1.2,5.5-2.9,10.2-4.7,14c22.2,0,44.3,0,66.5,0c-1.1-5-3.5-12.1-9.3-19
		c-10.4-12.4-21.6-12-24.5-21c-2.3-7.2,2.5-14.1,11.7-27c6.6-9.3,13.5-16.3,18.7-21c-18.9,10-31.1,20.1-38.5,27
		c-5.4,5.1-8.6,8.9-9.3,14c-1.6,11.3,10.1,20.4,8.2,22C621.3,1055.2,617.8,1054.4,604.7,1045.5z"/>
	<path class="st0" d="M855.5,1077.5c15.7-13.7,18.3-21.8,25.7-22c4-0.1,4.2,2.2,9.3,2c5.6-0.3,6.3-3.1,12.8-4c5.4-0.7,10,0.5,11.7,1
		c4.2,1.2,4.5,2.3,7,3c6.8,1.9,10.5-4.6,22.2-8c4-1.2,11.2-1.4,25.7-2c8-0.3,9.8-0.1,14-1c6.1-1.3,8.5-3.1,11.7-2
		c3.9,1.4,2.8,4.9,7,7c5.6,2.7,13.9-0.5,15.2-1c4-1.6,4.4-3,7-3c4.1,0.1,4.7,3.8,9.3,5c3.9,1,5.2-1.3,14-3c8.7-1.7,10.1-0.1,12.8-2
		c5.4-3.9,1.2-11.9,5.8-14c3-1.4,8.1,0.3,10.5,3c2.9,3.3,0.5,6.7,3.5,9c2.5,1.9,6.4,1.3,8.2,1c6.5-1,10.1-4.9,14-8
		c6.1-4.8,12-6.9,21-10c18.5-6.4,24.1-1,35-8c3.8-2.4,7.6-6,11.7-5c3.2,0.8,5.2,4,5.8,5c2.1,3.3,1.2,5.1,2.3,7
		c2.5,4.1,11.4,3.7,18.7,4c4.2,0.2,31.8,1.1,35,9c1.5,3.7-4.1,4.6-10.5,18c-3,6.3-3.6,9.9-8.2,16c-2.2,2.9-3.9,4.6-3.5,5
		c1.1,1,12.4-9.4,31.5-16c6.7-2.3,5.6-1.1,15.2-4c19.5-5.9,22.2-10.3,35-13c2.8-0.6,0.5,0.1,25.7-1c22.3-0.9,27.6-1.6,37.3,0
		c9.3,1.5,9,2.9,15.2,3c13.9,0.2,19.7-6.8,26.8-4c6.8,2.6,3.7,9.9,10.5,13c8.6,4,16.9-6,31.5-3c6.5,1.3,13.1,5,12.8,8
		c-0.3,3.4-9.6,4.9-9.3,6c0.5,1.9,31.7-0.5,47.8,2c3.3,0.5,8.3,1.6,10.5,5c1,1.5,1.2,3,1.2,4c-216.2,0-432.4,0-648.7,0
		C853.7,1079.1,854.5,1078.4,855.5,1077.5z"/>
</g>
<g id="Capa_10">
	<path class="st0" d="M941.8,407.5c-3.3,2.1-10.6,6.8-14,15c-2.1,5.2-0.1,5.6-2.3,9c-1.6,2.4-4.1,4.5-21,13c-4.3,2.1-5.9,2.9-5.8,4
		c0.2,2.2,8.3,4.4,15.2,3c5.8-1.2,7.9-4.5,11.7-7c11.2-7.5,23.5,0.5,50.2-2c9.7-0.9,23.8-2.2,25.7-8c1.2-3.5-3.3-5.7-19.8-23
		c-7.7-8.1-8.9-9.8-12.8-11C958,397.3,946.3,404.7,941.8,407.5z"/>
	<path class="st0" d="M986.2,448.5c-4.2,9.3,33.9,34.3,44.3,28c5-3,1.8-12.4,7-14c3.3-1,5.7,2.5,14,6c3.9,1.6,14.1,5.9,24.5,4
		c8.6-1.6,9.4-6.1,16.3-6c8.7,0.1,11.4,7,16.3,6c7.8-1.6,13.1-21.7,4.7-28c-6.7-5-15.4,3.8-28-1c-9.7-3.7-10.2-11-25.7-18
		c-5.4-2.5-9-3.2-10.5-2c-2.7,2.1,3.1,8.7,0,12c-2.3,2.4-8.7,2.4-12.8,0c-5.8-3.3-2.8-8.7-8.2-16c-4.7-6.4-8.1-3.7-17.5-12
		c-7.6-6.7-9.6-12.2-16.3-13c-1.8-0.2-5.2-0.2-5.8,1c-1.7,3.7,25.3,10.1,28,24c1.6,8.1-5.6,16.7-11.7,21
		C995.7,447,987.9,444.6,986.2,448.5z"/>
	<path class="st0" d="M1087.7,385.5c-9.6,0.3-19.5,22.4-12.8,28c3.6,3,9.2-1.2,23.3,1c8,1.2,8.3,2.9,16.3,4c3.1,0.4,19.9,2.7,23.3-3
		c2.1-3.5-1.3-8.9-4.7-12c-6.8-6.2-15.5-4.3-17.5-9c-1.9-4.4,4.5-8.6,2.3-11c-2-2.2-9.8-1.6-12.8,2c-3.4,4,0.7,10.1-1.2,11
		C1101.4,397.7,1095,385.2,1087.7,385.5z"/>
	<path class="st0" d="M1195,377.5c-6.9-3.1-25.1,7.7-24.5,17c0.4,6.7,10.3,7.5,12.8,17c1.9,7.3-3.2,9.9-1.2,16
		c3.3,9.9,21.6,17.1,28,13c6.2-4,3.5-20.1-5.8-30c-7.7-8.2-18.4-10.7-17.5-15c0.8-3.8,9.7-3.5,11.7-9
		C1199.7,383.2,1198.1,378.9,1195,377.5z"/>
	<path class="st0" d="M1034,250.5c-5-1.4-10.9,1.4-12.8,5c-1.4,2.7,0.4,3.7,0,7c-1,7.6-12,8.3-15.2,17c-0.3,0.7-2.4,6.8,1.2,11
		c3.8,4.5,11.3,3.6,11.7,6c0.5,3.1-11.7,4.3-14,11c-1.7,5,3.6,8.2,1.2,12c-1.8,2.8-5.3,2-11.7,5c-5.5,2.6-12.8,7.8-11.7,11
		c1.3,3.7,13.7,3.8,21,3c5.7-0.7,11.6-1.3,16.3-5c8.8-6.9,2.1-15.5,9.3-23c9.7-10,30.9-3.6,33.8-11c1.2-3.1-1.2-7.5-4.7-9
		c-7.5-3.3-16.5,8.6-24.5,6c-7.4-2.4-11.6-16.1-7-26c3.9-8.5,13.7-12.6,11.7-17C1037.7,251.5,1035,250.8,1034,250.5z"/>
</g>
<g id="Capa_11">
	<path class="st0" d="M475.2,67.5c-0.4,0.1-1,0.2-1.9,0.4c-7.6,2-26.5,6.8-26.1,10.6c0.2,2.7,10.6,5.9,19.8,4
		c12.8-2.6,20.3-14.1,18.7-16C484.7,65.4,479.7,66.5,475.2,67.5z"/>
	<path class="st0" d="M496.2,65.5c-1.6,3.1,0.4,7.3,3.5,9c5.8,3.2,16.3-2,16.3-6c0-3.9-10.3-8.5-16.3-6
		C499.1,62.7,497.1,63.6,496.2,65.5z"/>
	<path class="st0" d="M507.8,57.5c-0.2,0.6,1.2,1.2,5.8,4c5.7,3.4,7.1,4.5,8.2,4c1-0.5,0.3-1.8,1.2-5c1-3.8,3-5.4,2.3-6
		c-0.7-0.6-2.9,1-7,2C512.4,57.9,508.2,56.5,507.8,57.5z"/>
	<path class="st0" d="M628,101.5c8.4-7.6,21-3.8,23.3-9c2.1-4.7-6.9-10.4-4.7-13c2-2.4,8.9,2.5,17.5,1c11-2,10.4-11.9,24.5-18
		c8.5-3.6,16.4-3.4,16.3-5c0-2-11.8-3.4-11.7-4c0.1-0.7,12.7,2.4,24.5-2c2.9-1.1,8.7-3.3,9.3-7c0.9-5-7.9-9.7-14-13
		c-5.9-3.2-17-9-32.7-9c-9.7,0-8.7,2.3-23.3,4c-20.2,2.4-30.3-1-33.8,4c-3.2,4.6,2.4,11.9,0,13c-2.2,1-5.9-5.5-12.8-6
		c-4-0.3-7.7,2.2-15.2,7c-6.8,4.4-10.2,6.6-10.5,9c-0.8,6.6,13.2,11.5,11.7,15c-1.4,3.2-13.8,0.6-15.2,4c-0.9,2.1,2.9,5.3,5.8,7
		c6.4,3.7,11.2,1.3,15.2,5c1.9,1.7,3.4,4.7,2.3,7c-1.3,2.8-5.7,2.7-14,5c-3.5,1-15.4,4.3-15.2,7c0.1,1.6,4.4,1.9,18.7,6
		c8.6,2.5,12.5,3.9,14,7c1.4,2.9-0.1,5.5,1.2,6c2.4,1,9.4-7.6,10.5-9C626.1,105.8,624.6,104.6,628,101.5z"/>
	<path class="st0" d="M568.5,105.5c-4.2-6.6-12.7-11.5-15.2-10c-2,1.2-0.6,7,2.3,11c2.8,3.8,6,4.6,5.8,7c-0.2,2.1-2.8,2.3-4.7,6
		c-0.7,1.4-1.8,3.7-1.2,6c0.8,2.7,3.8,4.2,8.2,6c8.1,3.3,17.7,7,30.3,6c4.9-0.4,7.5-1.3,9.3-3c2.9-2.8,2.4-6.6,2.3-7
		c-0.7-4.4-5.2-7.7-9.3-8c-3-0.2-3.6,1.4-9.3,3c-4.9,1.4-9,2.5-11.7,1c-2.6-1.5-3.3-5.4-4.7-13C570.4,108.1,569.4,107,568.5,105.5z"
		/>
	<path class="st0" d="M565,68.5c-4.7,0.7-9.2,11.3-4.7,18c2.3,3.4,7.2,6,9.3,5c1.3-0.6,0.7-2.2,1.2-7c0.7-6.9,2.4-8.2,1.2-11
		C570.8,70.9,567.7,68.1,565,68.5z"/>
	<path class="st0" d="M545.2,54.5c-1.9,1-1.2,3.2-2.3,10c-0.9,5.1-1.5,5.2-1.2,7c0.8,4.4,5.3,9.2,9.3,9c5.2-0.3,9.7-9,8.2-16
		c-0.2-0.9-1.5-6.4-7-9C551.2,55,547.5,53.2,545.2,54.5z"/>
	<path class="st0" d="M461.2,91.5c-0.7,4,4,5.7,4.7,13c0.4,4.9-1.5,6.9,0,8c3.6,2.7,14.7-8.1,24.5-5c4,1.3,4.3,3.8,8.2,4
		c5.2,0.3,11.5-3.9,11.7-8c0.2-4.4-6.6-5.6-7-11c-0.3-4.7,4.7-7.9,3.5-9c-1-0.9-5.3,0.4-8.2,3c-4.1,3.7-2.6,7.7-5.8,9
		c-2.5,1-6.3,0-8.2-2c-3.4-3.6,1.4-8.7-1.2-11C479.6,79.1,462.4,84.4,461.2,91.5z"/>
	<path class="st0" d="M505.5,135.5c-3.2,4.3-3.1,7.9-4.7,8c-1.9,0.1-2.7-5-4.7-5c-1.8,0-3.5,4.2-3.5,8c0,1.3,0,8.1,5.8,11
		c5.4,2.6,12.7,0.4,16.3-3c3.6-3.4,1.1-5.7,5.8-14c1.7-2.9,2.8-4.1,2.3-6c-0.8-2.9-5.3-5.4-9.3-5
		C509.6,129.9,507.1,133.3,505.5,135.5z"/>
	<path class="st0" d="M532.3,133.5c-1.8,1-2.2,2-5.8,9c-3.4,6.5-4,7.4-3.5,9c1,3,5.1,5.6,8.2,5c3.8-0.7,2.8-5.5,8.2-9
		c4.9-3.2,9-1.5,10.5-4c1.8-3-2.1-9.3-8.2-11C541.4,132.4,536.5,131.2,532.3,133.5z"/>
	<path class="st0" d="M569.7,143.5c-1-0.1-7.1-0.9-12.8,2c-3.8,1.9-5.6,5-9.3,11c-3.7,6-5.6,9.3-5.8,14c-0.1,2.8-0.4,8.8,3.5,11
		c4.4,2.5,10.5-1.8,14,1c2.2,1.8,0.8,4.2,3.5,6c2.7,1.8,6.7,1.1,7,1c5.7-1.2,6-6.5,9.3-7c5.5-0.8,16.2,11.6,16.3,25
		c0,2.5-0.2,15.7-10.5,22c-7.6,4.7-15.9,2.8-18.7,8c-1.3,2.6-1.1,6.3,1.2,8c4.5,3.4,14.9-2.8,17.5,0c1.6,1.7-2.1,4.3-1.2,9
		c1.1,5.3,7.1,8.5,8.2,9c4.6,2.4,6.3,1,11.7,3c7.8,2.9,10.8,8.5,11.7,8c1.7-0.9-11-20.1-9.3-21c1.3-0.7,9.9,11.4,14,10
		c2.9-1,2.7-8.4,1.2-14c-2.8-10.1-10.2-14.2-8.2-17c1.6-2.1,7.7-2.1,11.7,0c5.8,3.1,4.6,9.2,8.2,10c3.9,0.9,11.8-5.1,11.7-11
		c-0.3-9.5-20.8-11.4-22.2-22c-1-7.5,9-9.6,8.2-17c-1.2-10.7-22.4-11.3-26.8-25c-2.6-8.2,3.3-13.2-1.2-17c-4.8-4.1-12.8,1-24.5-4
		C574.9,145.3,573.3,144,569.7,143.5z"/>
	<path class="st0" d="M521.8,94.5c-1.9,1.9,5.3,6.5,4.7,14c-0.4,4.6-3.5,7.1-2.3,8c1.9,1.5,10.7-4.3,11.7-5c4.9-3.3,10.3-6.9,9.3-10
		c-0.5-1.7-4.3-2.8-11.7-5C526.4,94.4,522.9,93.4,521.8,94.5z"/>
	<path class="st0" d="M540.5,116.5c-1.3,0.9-0.7,3,0,6c0.8,3.1,1.1,4.6,2.3,5c2.1,0.7,5.7-2.1,7-5c0.2-0.5,1.6-3.5,0-5
		c-0.6-0.6-2-0.7-4.7-1C542.5,116.2,541.1,116.1,540.5,116.5z"/>
	<path class="st0" d="M457.7,515.5c-0.5-1.6,8.9-6.8,18.7-6c4,0.3,7.1,1.6,8.2,2c2.2,0.9,3.2,1.6,9.3,6c7.9,5.6,8.7,6.2,10.5,7
		c5.1,2.3,8.1,2,8.2,3c0.2,1.8-8.3,5.3-14,3c-2.5-1-2.5-2.4-5.8-5c-2.9-2.3-5.5-3.2-10.5-5c-2.7-1-8.4-3-16.3-4
		C460,515.8,457.9,516.2,457.7,515.5z"/>
	<path class="st0" d="M523,530.5c-3.8,1.8-7.3,6.1-5.8,9c1.6,3.1,8.4,3.5,12.8,2c4.9-1.6,9.4-6,8.2-9
		C536.8,529.2,528.5,527.8,523,530.5z"/>
	<path class="st0" d="M1455.2,604.5c-1,2.2,12.3,5,22.2,17c4.1,4.9,3.2,6.1,10.5,16c5.8,7.8,9.1,10.8,10.5,12c4.4,3.8,8.2,5.9,14,9
		c11.3,6.1,17.7,9.5,26.8,11c7.3,1.2,7.4-0.4,19.8,0c17.1,0.5,27.8,3.7,28,3c0.2-0.7-10.6-4.5-23.3-7c-15-2.9-25.7-4-25.7-4
		c-7.2-0.7-13.2-1-17.5-5c-0.9-0.9-3.2-3-3.5-6c-0.5-5,4.7-7.3,3.5-10c-1.3-3-7.7-1-12.8-5c-4.2-3.2-2-6.1-5.8-10
		c-5.2-5.2-10.9-1.9-18.7-7c-6.6-4.3-4.9-8.3-11.7-12C1464.8,602.8,1456,602.8,1455.2,604.5z"/>
	<path class="st0" d="M1597.5,625.5c-4.4-0.2-10.2,32.3-7,33c1.6,0.3,3.3-8.1,9.3-9c6.6-1,13,7.8,16.3,6c1.2-0.6,0.4-1.8,2.3-5
		c1.9-3.2,4-4.3,3.5-5c-0.7-1.2-5.9,1.6-10.5,0c-2.3-0.8-3.6-2.4-5.8-6C1599.4,629.5,1599,625.6,1597.5,625.5z"/>
	<path class="st0" d="M1577.7,645.5c2.8-3.1-0.8-6.2,2.3-12c3-5.6,8.5-6.5,8.2-10c-0.3-3.2-5.1-3.4-5.8-7c-0.9-4.1,5.3-5.8,5.8-11
		c0.6-5.8-5.9-12.4-10.5-12c-2.3,0.2-3.4,2-5.8,5c-5.8,7.1-13.2,13-18.7,16c-9.6,5.2-14.9,2.1-17.5,6c-4.1,6.1,4.7,19.6,17.5,25
		C1561.5,649,1573.7,650,1577.7,645.5z"/>
	<path class="st0" d="M1660.5,631.5c-2.6,2.7,4.2,15,15.2,18c5.6,1.5,8-0.5,14,2c0.9,0.4,9.1,3.9,9.3,9c0.1,3.9-4.4,5.4-3.5,8
		c0.7,1.9,3.5,2.2,11.7,4c13.2,3,14.7,4.2,17.5,3c5.4-2.2,4.4-8.5,8.2-9c3.7-0.5,5.5,5.4,12.8,10c8.9,5.6,20.3,5.6,21,4
		c1-2.2-18.1-6.5-19.8-17c-0.7-4.5,1.9-9.6,4.7-10c2.8-0.4,3.9,4.3,9.3,6c6.6,2,15.2-1.7,15.2-4c0-1.7-4.7-1.4-11.7-5
		c-9.9-5.1-10.4-10.8-16.3-11c-4.8-0.2-5.5,3.5-12.8,5c-5.9,1.3-11,0-15.2-1c-13.7-3.4-15.5-10-22.2-9c-7.9,1.2-11.1,11.2-15.2,10
		c-2-0.6-3-3.6-3.5-5c-1.1-3.2,0.2-4.5-1.2-6c-0.4-0.5-1.4-1.4-8.2-2C1664.1,631,1661.2,630.7,1660.5,631.5z"/>
	<path class="st0" d="M1598.7,526.5c-2.9,5.3-3.4,10-3.5,11c-0.9,8.7-1.3,13,0,18c2,7.9,6.2,9.6,14,20c11.6,15.6,12.3,25.4,15.2,25
		c3.6-0.5,8.3-16.9,0-28c-6.1-8.1-15.3-8.1-19.8-18c-1.3-2.9-1.7-6-2.3-12c-1.2-10.9,0.3-18.8-1.2-19
		C1600.4,523.4,1599.6,524.8,1598.7,526.5z"/>
	<path class="st0" d="M1595.2,492.5c-2.5-0.5-7,5.2-8.2,11c-1.2,5.9,0.9,12.8,3.5,13c2.8,0.2,6.3-6.9,7-13
		C1598,499.4,1597.6,493,1595.2,492.5z"/>
	<path class="st0" d="M1629,446.5c-0.6,2.1,0.6,3.1,4.7,11c3,5.8,3.8,8.1,4.7,8c1.3-0.2-0.7-5.9,2.3-12c2.7-5.4,9.3-10.7,16.3-11
		c4.6-0.2,5.5,1.8,9.3,1c2.9-0.6,4.8-2.3,10.5-9c5.1-6,7.7-9,8.2-10c4.1-8.5,0.3-17.4-1.2-21c-4.5-10.7-12.8-16.2-10.5-19
		c1.2-1.4,3.6-0.3,8.2-2c4.3-1.6,6.8-4.4,8.2-6c4.8-5.5,2.9-8.6,8.2-14c1.1-1.1,2.3-2.1,4.7-4c4.9-4,8.3-5.9,8.2-6
		c-0.1-0.2-6.7,2.5-12.8,8c-5.4,4.9-5.2,7.4-8.2,8c-7.7,1.7-17.9-13.1-19.8-12c-1.4,0.8,4.8,7.1,2.3,14c-1.3,3.6-3.8,4.2-4.7,8
		c-0.9,3.7,0.8,6.6,2.3,10c4.2,9.2,8.7,19,4.7,24c-3.1,3.8-8.9,1.7-11.7,6c-3,4.5,1.8,9.4-1.2,12c-2.6,2.2-6.6-1-12.8,1
		c-3.9,1.2-3.4,2.9-10.5,8C1631.8,444.2,1629.7,444.1,1629,446.5z"/>
</g>
<g id="Capa_12">
	<path class="st0" d="M33,510.5c-0.3,1.1,11.7,1.3,17.5,9c5,6.8,1.3,13.9,4.7,15c3.3,1.1,10.9-4.4,10.5-10c-0.3-3.6-3.8-6-7-8
		C47.5,509.3,33.3,509.4,33,510.5z"/>
</g>
</svg>
