<?xml version="1.0" encoding="utf-8"?>
<!-- Generator: Adobe Illustrator 25.0.0, SVG Export Plug-In . SVG Version: 6.00 Build 0)  -->
<svg version="1.1" id="Capa_1" xmlns="http://www.w3.org/2000/svg" xmlns:xlink="http://www.w3.org/1999/xlink" x="0px" y="0px"
	 viewBox="0 0 623.6 226.8" style="enable-background:new 0 0 623.6 226.8;" xml:space="preserve">
<g>
	<g>
		<path d="M27.7,174.4V35.7H48v138.7H27.7z M46.6,121.7v-18.6h28.7c7.7,0,13.8-2.1,18.1-6.2c4.3-4.1,6.5-9.9,6.5-17.3
			c0-8.1-2.2-14.4-6.5-18.8c-4.3-4.4-10.4-6.6-18.1-6.6H47l-2.3-18.6h30.7c14.4,0,25.5,3.6,33.3,10.9c7.8,7.3,11.8,17.6,11.8,31.1
			c0,13.9-3.9,24.7-11.8,32.4c-7.8,7.7-19,11.5-33.3,11.5H46.6z M102.1,174.4L71,109.2h21.5l33,65.2H102.1z"/>
		<path d="M146.8,174.4V35.7h20.3v138.7H146.8z M146.8,54.3V35.7h91.8v18.6H146.8z M146.8,114.2V95.7H221v18.6H146.8z M146.8,174.4
			v-18.6h91.8v18.6H146.8z"/>
		<path d="M302.2,176.4c-7.9,0-15.3-0.6-22.1-1.9c-6.9-1.3-13.2-3.2-19.1-5.7l2.5-19.7c7.2,3.1,14.1,5.4,20.8,7
			c6.7,1.6,13.2,2.4,19.5,2.4c9.1,0,15.9-1.6,20.3-4.8c4.4-3.2,6.6-8,6.6-14.6c0-8.3-4.2-14.3-12.7-18.2l-24-10.9
			c-9.4-4.3-16.7-9.5-21.7-15.5c-5-6.1-7.6-13.6-7.6-22.6c0-12.1,3.6-21.5,10.9-28.1c7.3-6.6,17.6-10,31-10c9.3,0,17.5,1.4,24.7,4.1
			c7.2,2.7,14.1,7.2,20.7,13.4l-13.7,13.9c-5.7-4.7-11.1-8.1-16.1-10.2c-5-2.1-10.2-3.2-15.6-3.2c-6.7,0-11.9,1.6-15.6,4.8
			c-3.7,3.2-5.5,8-5.5,14.3c0,4.5,1.2,8.2,3.6,11c2.4,2.8,6,5.4,10.6,7.6l20.3,9.6c10.3,4.8,18.1,10.3,23.4,16.3
			c5.3,6.1,8,13.8,8,23.3c0,12.6-4.1,22-12.3,28.3C331.2,173.2,318.8,176.4,302.2,176.4z"/>
		<path d="M375.3,114.2V96.1H473v18.2H375.3z"/>
		<path d="M541.3,176.4c-34.1,0-51.2-23.4-51.2-70.3c0-48.2,17.1-72.3,51.2-72.3c34.1,0,51.2,24.1,51.2,72.3
			C592.5,152.9,575.5,176.4,541.3,176.4z M541.3,158.4c20.2,0,30.3-17.4,30.3-52.3c0-36.2-10.1-54.3-30.3-54.3
			c-20.2,0-30.3,18.1-30.3,54.3C511.1,140.9,521.2,158.4,541.3,158.4z M573.6,219.3c-14.1,0-24.6-3.6-31.7-10.7
			c-7.1-7.2-10.6-17.9-10.6-32.2v-8h19.3v8.2c0,8.4,1.9,14.7,5.8,18.9c3.8,4.2,9.6,6.3,17.3,6.3h10l-2,17.6H573.6z"/>
	</g>
</g>
</svg>
